<svg xmlns="http://www.w3.org/2000/svg" xmlns:xlink="http://www.w3.org/1999/xlink" xml:space="preserve" version="1.1" style="shape-rendering:geometricPrecision;text-rendering:geometricPrecision;image-rendering:optimizeQuality;" viewBox="0 0 847 1058.75" x="0px" y="0px" fill-rule="evenodd" clip-rule="evenodd"><defs><style type="text/css">
   
   
  </style></defs><g><path fill="#FBFBFF" d="M328 269c14,0 27,0 40,0 7,0 13,5 13,12 0,95 0,190 0,284 0,7 -6,13 -13,13 -13,0 -26,0 -40,0 -7,0 -12,-6 -12,-13 0,-94 0,-189 0,-284 0,-7 5,-12 12,-12zm95 -248c223,0 403,180 403,402 0,223 -180,403 -403,403 -222,0 -402,-180 -402,-403 0,-222 180,-402 402,-402zm0 90c173,0 313,140 313,312 0,173 -140,313 -313,313 -172,0 -312,-140 -312,-313 0,-172 140,-312 312,-312zm55 158c14,0 27,0 40,0 7,0 13,5 13,12 0,95 0,190 0,284 0,7 -6,13 -13,13 -13,0 -26,0 -40,0 -7,0 -12,-6 -12,-13 0,-94 0,-189 0,-284 0,-7 5,-12 12,-12z"/></g></svg>